<?xml version="1.0" encoding="UTF-8"?>
<svg version="1.1" xmlns="http://www.w3.org/2000/svg" width="250" height="100">
<path d="M0 0 C165 0 330 0 500 0 C500 33 500 66 500 100 C335 100 170 100 0 100 C0 67 0 34 0 0 Z M75 14 C74.34 16.31 73.68 18.62 73 21 C66.25 19.25 66.25 19.25 64 17 C61.45286596 17.00922702 61.45286596 17.00922702 59 18 C57.45089819 19.59436406 57.45089819 19.59436406 57 22 C57.31126713 25.68203915 57.31126713 25.68203915 58 29 C57.22914062 28.96519531 56.45828125 28.93039063 55.6640625 28.89453125 C54.15972656 28.85392578 54.15972656 28.85392578 52.625 28.8125 C51.62726562 28.77769531 50.62953125 28.74289063 49.6015625 28.70703125 C48.31378906 28.85205078 48.31378906 28.85205078 47 29 C44.735616 31.69155201 44.735616 31.69155201 45.25 34.0625 C45.92532718 36.19476975 45.92532718 36.19476975 48 38 C48.125 40.625 48.125 40.625 48 43 C45.69 43.99 43.38 44.98 41 46 C41 48.31 41 50.62 41 53 C43.31 53.99 45.62 54.98 48 56 C47.50168276 59.68754757 46.89932357 61.60490662 44 64 C44.66 65.98 45.32 67.96 46 70 C49.3 70.33 52.6 70.66 56 71 C55.9175 72.423125 55.835 73.84625 55.75 75.3125 C55.64340548 79.13167807 55.64340548 79.13167807 58 82.0625 C58.99 82.5265625 58.99 82.5265625 60 83 C60.515625 82.71125 61.03125 82.4225 61.5625 82.125 C64.62356725 80.71219973 67.74944918 79.8751483 71 79 C71.66 81.64 72.32 84.28 73 87 C75.31 87 77.62 87 80 87 C80.99 84.69 81.98 82.38 83 80 C85.875 80.3125 85.875 80.3125 89 81 C89.99 82.485 89.99 82.485 91 84 C93.99152582 83.22520264 93.99152582 83.22520264 97 82 C98.1577506 78.52674819 98.06866652 75.63932552 98 72 C98.61488281 72.04640625 99.22976562 72.0928125 99.86328125 72.140625 C102.29745175 72.24932799 104.57936402 72.29184973 107 72 C109.12355567 70.17728073 109.12355567 70.17728073 110 68 C109.690625 67.484375 109.38125 66.96875 109.0625 66.4375 C107.70940713 63.33334577 107.38640576 60.34884993 107 57 C109.31 56.01 111.62 55.02 114 54 C114 52.02 114 50.04 114 48 C111.69 47.34 109.38 46.68 107 46 C107.3125 42.625 107.3125 42.625 108 39 C108.99 38.34 109.98 37.68 111 37 C110.42547254 33.06924356 110.42547254 33.06924356 108 30 C105.31160615 29.73008094 102.70858064 29.91262643 100 30 C99.38926213 27.3280218 98.99708801 25.06260781 99.125 22.3125 C99.08375 21.549375 99.0425 20.78625 99 20 C96.04622502 17.63019987 96.04622502 17.63019987 92 18 C91.525625 18.515625 91.05125 19.03125 90.5625 19.5625 C90.046875 20.036875 89.53125 20.51125 89 21 C86.3125 20.6875 86.3125 20.6875 84 20 C83.34 18.02 82.68 16.04 82 14 C79.69 14 77.38 14 75 14 Z M385 16 C385 39.43 385 62.86 385 87 C421.63 87 458.26 87 496 87 C496 63.57 496 40.14 496 16 C459.37 16 422.74 16 385 16 Z M11 28 C11 42.85 11 57.7 11 73 C15.29 73 19.58 73 24 73 C24 67.39 24 61.78 24 56 C28.95 56 33.9 56 39 56 C39 52.7 39 49.4 39 46 C34.05 46 29.1 46 24 46 C24 43.69 24 41.38 24 39 C29.94 39 35.88 39 42 39 C42 35.37 42 31.74 42 28 C31.77 28 21.54 28 11 28 Z M115 28 C115 42.85 115 57.7 115 73 C119.29 73 123.58 73 128 73 C128 68.38 128 63.76 128 59 C129.32 59.33 130.64 59.66 132 60 C132.86824054 61.54925386 133.72672102 63.10684633 134.48632812 64.7121582 C136.04234093 67.95199914 137.56793097 70.29441561 140 73 C144.8390434 74.14471994 149.12112253 73.80172565 154 73 C152.29440053 68.32632303 149.80894875 64.51377922 147.046875 60.40234375 C146 58 146 58 146.7265625 55.86328125 C147.35691406 54.94095703 147.35691406 54.94095703 148 54 C150.84864965 49.17920828 151.79260077 45.49316365 151 40 C148.99703332 34.32492775 145.38649821 30.69324911 140 28 C138.1136088 27.915085 136.22421485 27.892807 134.3359375 27.90234375 C133.3257959 27.90484131 132.3156543 27.90733887 131.27490234 27.90991211 C129.98793457 27.91901611 128.7009668 27.92812012 127.375 27.9375 C123.29125 27.958125 119.2075 27.97875 115 28 Z M158 28 C158 42.85 158 57.7 158 73 C168.56 73 179.12 73 190 73 C190 69.37 190 65.74 190 62 C183.73 62 177.46 62 171 62 C171 59.69 171 57.38 171 55 C176.28 55 181.56 55 187 55 C187 51.7 187 48.4 187 45 C181.72 45 176.44 45 171 45 C171 43.02 171 41.04 171 39 C177.27 39 183.54 39 190 39 C190 35.37 190 31.74 190 28 C179.44 28 168.88 28 158 28 Z M196 34 C193.43101336 38.21621063 193.2365888 42.18463704 194 47 C198.05133079 54.52390004 206.28936109 56.42978703 214 59 C214.33 59.99 214.66 60.98 215 62 C213.24871182 61.71617054 211.49899997 61.42260471 209.75 61.125 C208.28820312 60.88136719 208.28820312 60.88136719 206.796875 60.6328125 C204.21650203 60.0489851 202.32128194 59.21956976 200 58 C197.87957244 57.8423415 197.87957244 57.8423415 196 59 C193.71094011 62.67884625 193 64.61551956 193 69 C194.24891614 69.48198463 195.49918808 69.96045677 196.75 70.4375 C197.44609375 70.70433594 198.1421875 70.97117188 198.859375 71.24609375 C206.08074563 73.78938669 214.26861427 74.24379524 221.5625 71.8125 C224.86430503 69.35731164 227.15994189 66.68011621 229 63 C229.39231417 58.29223 229.47336758 55.92920303 227.3125 51.6875 C223.49652441 47.25271756 219.18623089 45.56484281 213.6875 43.8125 C212.61886719 43.46832031 211.55023438 43.12414063 210.44921875 42.76953125 C209.64097656 42.51558594 208.83273438 42.26164062 208 42 C208 41.34 208 40.68 208 40 C213.30331456 39.68180113 216.38061275 40.42173735 221 43 C221.66 43 222.32 43 223 43 C223.70226141 41.75823305 224.38629109 40.50614401 225.0625 39.25 C225.44535156 38.55390625 225.82820313 37.8578125 226.22265625 37.140625 C227.15198075 34.58148014 227.10157484 33.47592059 226 31 C216.47027159 25.76799224 203.46537205 25.25026287 196 34 Z M234 28 C234 42.85 234 57.7 234 73 C237.96 73 241.92 73 246 73 C246 58.15 246 43.3 246 28 C242.04 28 238.08 28 234 28 Z M257.25390625 33.87109375 C252.82002068 39.49585506 250.48680897 44.30204081 250.69140625 51.53515625 C251.71813786 59.73601255 255.53456236 65.95989748 262 71 C266.10206395 73.41916592 270.34435438 73.48809188 275 73 C277.88214887 72.11785113 277.88214887 72.11785113 280 71 C280.33 71.66 280.66 72.32 281 73 C284.63 73 288.26 73 292 73 C292 65.08 292 57.16 292 49 C285.73 49 279.46 49 273 49 C273 51.97 273 54.94 273 58 C274.98 58.33 276.96 58.66 279 59 C276.29305755 60.84072087 274.77707102 61 271.4375 61 C268 60 268 60 266.0625 57.4375 C264.4776308 52.30998201 264.19157942 48.23504514 266.0625 43.0625 C268 41 268 41 271.375 39.9375 C275.74899047 40.01291363 276.78512711 41.2195694 280 44 C284.11984526 44.13289823 287.09670756 40.57337285 290 38 C288.26548969 33.31682216 284.40759243 30.20379621 280 28 C271.25610153 27.24450736 263.52754337 27.14833719 257.25390625 33.87109375 Z M297 28 C297 42.85 297 57.7 297 73 C301.29 73 305.58 73 310 73 C310 67.06 310 61.12 310 55 C314.62 55 319.24 55 324 55 C324 60.94 324 66.88 324 73 C328.29 73 332.58 73 337 73 C337 58.15 337 43.3 337 28 C332.71 28 328.42 28 324 28 C324 33.28 324 38.56 324 44 C319.38 44 314.76 44 310 44 C310 38.72 310 33.44 310 28 C305.71 28 301.42 28 297 28 Z M341 28 C341 31.63 341 35.26 341 39 C345.29 39 349.58 39 354 39 C354 50.22 354 61.44 354 73 C358.29 73 362.58 73 367 73 C367 61.78 367 50.56 367 39 C370.96 39 374.92 39 379 39 C379 35.37 379 31.74 379 28 C366.46 28 353.92 28 341 28 Z " fill="#FEFEFE" transform="translate(0,0)"/>
<path d="M0 0 C36.63 0 73.26 0 111 0 C111 23.43 111 46.86 111 71 C74.37 71 37.74 71 0 71 C0 47.57 0 24.14 0 0 Z M92 15 C89.81561891 17.38897703 89.81561891 17.38897703 88.01171875 20.6171875 C87.66365677 21.18954132 87.31559479 21.76189514 86.95698547 22.35159302 C86.22512963 23.56215267 85.50193384 24.77798424 84.78686523 25.99853516 C83.68994274 27.87083058 82.56949585 29.7271893 81.44335938 31.58203125 C77.66738892 36.96599365 77.66738892 36.96599365 76 43 C73.20151667 40.49282637 71.49667451 37.68608132 69.6015625 34.45703125 C68.63476562 32.84731445 68.63476562 32.84731445 67.6484375 31.20507812 C66.29635794 28.93812619 64.95523182 26.6646063 63.625 24.38476562 C62.97789062 23.31548828 62.33078125 22.24621094 61.6640625 21.14453125 C61.08092285 20.15815674 60.4977832 19.17178223 59.89697266 18.15551758 C59.27097168 17.44419678 58.6449707 16.73287598 58 16 C56.35 16 54.7 16 53 16 C53 29.53 53 43.06 53 57 C54.32 57 55.64 57 57 57 C57.33 46.44 57.66 35.88 58 25 C65.25 37 65.25 37 67.51269531 40.796875 C68.11178711 41.77140625 68.71087891 42.7459375 69.328125 43.75 C69.9355957 44.75546875 70.54306641 45.7609375 71.16894531 46.796875 C71.77319336 47.52390625 72.37744141 48.2509375 73 49 C74.32 49 75.64 49 77 49 C78.63838343 47.18871787 78.63838343 47.18871787 79.9453125 44.73046875 C80.46480469 43.84166016 80.98429687 42.95285156 81.51953125 42.03710938 C82.04933594 41.09673828 82.57914063 40.15636719 83.125 39.1875 C84.18990382 37.34754028 85.25499993 35.50769184 86.3203125 33.66796875 C86.78711426 32.84578857 87.25391602 32.0236084 87.73486328 31.17651367 C88.76008174 29.41275016 89.86836611 27.69745084 91 26 C91.33 36.23 91.66 46.46 92 57 C93.65 57 95.3 57 97 57 C97 43.14 97 29.28 97 15 C95.35 15 93.7 15 92 15 Z M14 16 C14 29.53 14 43.06 14 57 C15.65 57 17.3 57 19 57 C19 52.05 19 47.1 19 42 C20.21816406 42.06960937 21.43632812 42.13921875 22.69140625 42.2109375 C32.76781466 43.08201067 32.76781466 43.08201067 41.5625 39.125 C45.65745923 33.87505227 45.6903372 29.54401842 45 23 C42.89431397 19.31504945 40.88181192 17.57359101 37 16 C34.3895369 15.72620714 34.3895369 15.72620714 31.578125 15.8046875 C30.65418945 15.80968262 29.73025391 15.81467773 28.77832031 15.81982422 C27.03180176 15.84713623 27.03180176 15.84713623 25.25 15.875 C19.68125 15.936875 19.68125 15.936875 14 16 Z " fill="#162940" transform="translate(385,16)"/>
<path d="M0 0 C2.31 0 4.62 0 7 0 C7.99 2.31 8.98 4.62 10 7 C12.97065509 6.65772428 12.97065509 6.65772428 16 6 C16.33 5.34 16.66 4.68 17 4 C21.75 4.875 21.75 4.875 24 6 C23.98839844 6.63808594 23.97679687 7.27617187 23.96484375 7.93359375 C23.95582031 8.75988281 23.94679687 9.58617187 23.9375 10.4375 C23.92589844 11.26121094 23.91429687 12.08492187 23.90234375 12.93359375 C23.76732652 14.99163938 23.76732652 14.99163938 25 16 C26.27875 15.938125 27.5575 15.87625 28.875 15.8125 C32.7320842 15.7572013 32.7320842 15.7572013 35 17.8125 C36 20 36 20 36 23 C35.01 23.928125 35.01 23.928125 34 24.875 C31.72861203 26.85077297 31.72861203 26.85077297 31.75 29.75 C31.8325 30.4925 31.915 31.235 32 32 C34.31 32.66 36.62 33.32 39 34 C39 35.98 39 37.96 39 40 C36.69 40.99 34.38 41.98 32 43 C32.46800711 47.05606165 32.87953208 50.46588679 35 54 C34.0625 56 34.0625 56 32 58 C28.97465051 58.36475845 26.03336186 58.22893297 23 58 C23.05800781 58.61488281 23.11601563 59.22976562 23.17578125 59.86328125 C23.31311836 62.32357742 23.35908671 64.55994094 23 67 C20.5776532 69.10361696 19.21754366 70 16 70 C15.401875 69.319375 14.80375 68.63875 14.1875 67.9375 C13.465625 67.298125 12.74375 66.65875 12 66 C9.29294488 66.14025199 9.29294488 66.14025199 7 67 C6.34 68.98 5.68 70.96 5 73 C2.69 73 0.38 73 -2 73 C-2.66 70.36 -3.32 67.72 -4 65 C-7.86648272 66.04097612 -11.49461443 67.03698408 -15 69 C-17 68.0625 -17 68.0625 -19 66 C-19.37109201 62.92211921 -19.18069582 60.11700298 -19 57 C-22.3 56.67 -25.6 56.34 -29 56 C-29.66 54.02 -30.32 52.04 -31 50 C-30.319375 49.443125 -29.63875 48.88625 -28.9375 48.3125 C-28.298125 47.549375 -27.65875 46.78625 -27 46 C-27.14025199 43.29294488 -27.14025199 43.29294488 -28 41 C-29.98 40.34 -31.96 39.68 -34 39 C-34 36.69 -34 34.38 -34 32 C-31.69 31.01 -29.38 30.02 -27 29 C-26.74930087 26.62570704 -26.74930087 26.62570704 -27 24 C-27.515625 23.484375 -28.03125 22.96875 -28.5625 22.4375 C-29.036875 21.963125 -29.51125 21.48875 -30 21 C-29.7181953 18.67511119 -29.04553582 17.09107165 -28 15 C-24.37 15 -20.74 15 -17 15 C-17.2475 13.576875 -17.495 12.15375 -17.75 10.6875 C-18.24028261 6.3025781 -18.24028261 6.3025781 -16.3125 3.875 C-13.6317912 2.86067775 -12.60670976 2.87042577 -10 4 C-9.34 4.66 -8.68 5.32 -8 6 C-6.01178687 6.39764263 -4.01055661 6.73775349 -2 7 C-1.34 4.69 -0.68 2.38 0 0 Z M-15.75 26.125 C-18.02692201 31.36192063 -18.7281079 36.90915787 -17.41015625 42.50390625 C-15.23591681 48.0188226 -12.02345554 51.85635763 -7 55 C-1.57137231 57.31219327 3.34669478 57.50560534 9 56 C15.31490779 53.11031605 19.63603575 49.31248461 22.3125 42.8125 C23.47051654 36.39077194 23.17149923 30.53065459 20.0625 24.6875 C16.77486667 20.01659731 12.35873666 17.72501806 7 16 C-2.92316604 14.32193615 -9.57682505 18.62900185 -15.75 26.125 Z " fill="#192C43" transform="translate(75,14)"/>
<path d="M0 0 C4.29 0 8.58 0 13 0 C13 5.28 13 10.56 13 16 C17.62 16 22.24 16 27 16 C27 10.72 27 5.44 27 0 C31.29 0 35.58 0 40 0 C40 14.85 40 29.7 40 45 C35.71 45 31.42 45 27 45 C27 39.06 27 33.12 27 27 C22.38 27 17.76 27 13 27 C13 32.94 13 38.88 13 45 C8.71 45 4.42 45 0 45 C0 30.15 0 15.3 0 0 Z " fill="#8FFF26" transform="translate(297,28)"/>
<path d="M0 0 C4.00125 -0.0825 8.0025 -0.165 12.125 -0.25 C13.37555176 -0.28641602 14.62610352 -0.32283203 15.91455078 -0.36035156 C22.26010271 -0.42373552 26.23554435 -0.36675485 31 4 C34.98688151 8.41789573 36.375 11.78962422 36.375 17.8125 C35.80027051 21.16508867 33.98633191 23.41929191 31.8984375 26.04296875 C30.73189483 28.03259048 30.73189483 28.03259048 31.65625 30.4140625 C33.51577692 33.99257069 35.61747762 37.37764969 37.7578125 40.79296875 C39 43 39 43 39 45 C34.12112253 45.80172565 29.8390434 46.14471994 25 45 C22.14116728 41.81965722 20.45947076 38.76874431 18.6484375 34.94140625 C18.10445312 33.97074219 17.56046875 33.00007813 17 32 C15.68 31.67 14.36 31.34 13 31 C13 35.62 13 40.24 13 45 C8.71 45 4.42 45 0 45 C0 30.15 0 15.3 0 0 Z M13 11 C13 13.97 13 16.94 13 20 C15.97 20 18.94 20 22 20 C22.67673447 16.59679066 22.67673447 16.59679066 23 13 C21.23863645 10.81668311 21.23863645 10.81668311 19.0546875 10.8046875 C16.02734375 10.90234375 16.02734375 10.90234375 13 11 Z " fill="#8EFF24" transform="translate(115,28)"/>
<path d="M0 0 C4.42290344 3.17244907 6.53653658 6.82938451 7.859375 12.0625 C8.97956853 19.58049986 7.16756792 24.56538067 3.17578125 30.85546875 C-0.7594625 35.16887406 -6.39943174 37.38131628 -12.1640625 37.765625 C-18.84606042 37.29731403 -24.0592283 34.74566222 -28.57421875 29.73046875 C-32.66283068 23.88959457 -33.1780447 19.32276027 -32.36328125 12.359375 C-31.09298211 6.5440445 -28.30189545 2.83132367 -23.69921875 -0.83203125 C-15.70714985 -5.08313173 -7.8050185 -4.33342396 0 0 Z " fill="#FDFDFD" transform="translate(89.76171875,33.39453125)"/>
<path d="M0 0 C4.4375 4.09615385 4.4375 4.09615385 6.4375 6.25 C4.94764431 10.04235994 2.85091953 12.05565887 -0.5625 14.25 C-3.32192373 14.1663811 -4.32460704 13.46328334 -6.375 11.625 C-8.6345649 9.93402315 -8.6345649 9.93402315 -12.125 10.25 C-15.60683824 10.94686203 -15.60683824 10.94686203 -17.5 13.3125 C-19.37092058 18.48504514 -19.0848692 22.55998201 -17.5 27.6875 C-15.71675377 30.57637803 -15.71675377 30.57637803 -12.125 31.25 C-8.78542898 31.25 -7.26944245 31.09072087 -4.5625 29.25 C-6.5425 28.92 -8.5225 28.59 -10.5625 28.25 C-10.5625 25.28 -10.5625 22.31 -10.5625 19.25 C-4.2925 19.25 1.9775 19.25 8.4375 19.25 C8.4375 27.17 8.4375 35.09 8.4375 43.25 C4.8075 43.25 1.1775 43.25 -2.5625 43.25 C-2.8925 42.59 -3.2225 41.93 -3.5625 41.25 C-4.5525 41.745 -4.5525 41.745 -5.5625 42.25 C-10.53159402 43.90636467 -14.72456487 43.85014208 -19.625 42.25 C-26.09490975 37.84495507 -30.90239243 31.99227158 -32.5625 24.25 C-33.73145423 17.01299123 -31.77158248 11.19104944 -27.5625 5.25 C-20.06642369 -1.95440019 -9.71284953 -4.77122433 0 0 Z " fill="#8EFF24" transform="translate(283.5625,29.75)"/>
<path d="M0 0 C10.56 0 21.12 0 32 0 C32 3.63 32 7.26 32 11 C25.73 11 19.46 11 13 11 C13 12.98 13 14.96 13 17 C18.28 17 23.56 17 29 17 C29 20.3 29 23.6 29 27 C23.72 27 18.44 27 13 27 C13 29.31 13 31.62 13 34 C19.27 34 25.54 34 32 34 C32 37.63 32 41.26 32 45 C21.44 45 10.88 45 0 45 C0 30.15 0 15.3 0 0 Z " fill="#8EFF24" transform="translate(158,28)"/>
<path d="M0 0 C2.10766983 0.93525761 4.10724835 1.91887865 6.08984375 3.09375 C5.48285632 7.22126449 4.05173584 10.4258648 2.08984375 14.09375 C-3.66015625 12.21875 -3.66015625 12.21875 -5.91015625 11.09375 C-8.24314285 11.05352609 -10.57722291 11.05054753 -12.91015625 11.09375 C-12.91015625 11.75375 -12.91015625 12.41375 -12.91015625 13.09375 C-11.48123047 13.56554687 -11.48123047 13.56554687 -10.0234375 14.046875 C-8.75632774 14.47863092 -7.48941072 14.91095277 -6.22265625 15.34375 C-4.98128906 15.76140625 -3.73992187 16.1790625 -2.4609375 16.609375 C1.62128755 18.31591573 4.73126018 20.28230524 7.40234375 23.84375 C8.97347972 28.98564954 8.80177543 32.74616503 6.33984375 37.40625 C3.45923738 40.84697428 1.34396507 42.67570956 -2.91015625 44.09375 C-11.75448266 44.73877801 -19.89744051 44.10010787 -27.91015625 40.09375 C-27.39979794 35.7046685 -26.38801348 32.75666938 -23.91015625 29.09375 C-21.31049669 29.53940592 -19.02534987 30.04393654 -16.59765625 31.09375 C-13.03407036 32.41973545 -9.69089073 32.70926853 -5.91015625 33.09375 C-6.24015625 32.10375 -6.57015625 31.11375 -6.91015625 30.09375 C-9.72458625 28.79520406 -9.72458625 28.79520406 -13.09765625 27.71875 C-24.09564418 23.72277414 -24.09564418 23.72277414 -26.91015625 18.09375 C-27.47366351 13.47483804 -27.35244415 9.99533688 -25.28515625 5.78125 C-18.43673776 -1.96827618 -9.85594905 -3.06923514 0 0 Z " fill="#8EFF24" transform="translate(220.91015625,28.90625)"/>
<path d="M0 0 C10.23 0 20.46 0 31 0 C31 3.63 31 7.26 31 11 C25.06 11 19.12 11 13 11 C13 13.31 13 15.62 13 18 C17.95 18 22.9 18 28 18 C28 21.3 28 24.6 28 28 C23.05 28 18.1 28 13 28 C13 33.61 13 39.22 13 45 C8.71 45 4.42 45 0 45 C0 30.15 0 15.3 0 0 Z " fill="#8EFF23" transform="translate(11,28)"/>
<path d="M0 0 C12.54 0 25.08 0 38 0 C38 3.63 38 7.26 38 11 C34.04 11 30.08 11 26 11 C26 22.22 26 33.44 26 45 C21.71 45 17.42 45 13 45 C13 33.78 13 22.56 13 11 C8.71 11 4.42 11 0 11 C0 7.37 0 3.74 0 0 Z " fill="#8DFF23" transform="translate(341,28)"/>
<path d="M0 0 C1.65 0 3.3 0 5 0 C5 13.86 5 27.72 5 42 C3.35 42 1.7 42 0 42 C-0.33 31.77 -0.66 21.54 -1 11 C-5.62 18.59 -10.24 26.18 -15 34 C-20 33 -20 33 -21.63745117 31.09814453 C-22.10127197 30.28458496 -22.56509277 29.47102539 -23.04296875 28.6328125 C-23.55923828 27.74722656 -24.07550781 26.86164062 -24.60742188 25.94921875 C-25.12884766 25.01722656 -25.65027344 24.08523437 -26.1875 23.125 C-27.24334513 21.29418752 -28.29932887 19.46345496 -29.35546875 17.6328125 C-29.81590576 16.81699707 -30.27634277 16.00118164 -30.75073242 15.16064453 C-31.76823659 13.40084154 -32.87241288 11.69138068 -34 10 C-34.33 20.56 -34.66 31.12 -35 42 C-36.32 42 -37.64 42 -39 42 C-39 28.47 -39 14.94 -39 1 C-37.35 1 -35.7 1 -34 1 C-32.10302734 3.15551758 -32.10302734 3.15551758 -30.3359375 6.14453125 C-29.68882812 7.21380859 -29.04171875 8.28308594 -28.375 9.38476562 C-27.715 10.51591797 -27.055 11.64707031 -26.375 12.8125 C-25.05281181 15.02933484 -23.72742552 17.2442662 -22.3984375 19.45703125 C-21.81755371 20.44678955 -21.23666992 21.43654785 -20.63818359 22.45629883 C-19.23555838 24.63423505 -17.91784776 26.28179168 -16 28 C-15.72671875 27.27312988 -15.4534375 26.54625977 -15.171875 25.79736328 C-14.04489386 23.10716539 -12.75818369 20.73504892 -11.25 18.2421875 C-10.7240625 17.36949219 -10.198125 16.49679688 -9.65625 15.59765625 C-9.1096875 14.69917969 -8.563125 13.80070312 -8 12.875 C-7.4534375 11.96878906 -6.906875 11.06257813 -6.34375 10.12890625 C-4.27920762 6.71330305 -2.21415213 3.32122819 0 0 Z " fill="#EFF1F3" transform="translate(477,31)"/>
<path d="M0 0 C3.96 0 7.92 0 12 0 C12 14.85 12 29.7 12 45 C8.04 45 4.08 45 0 45 C0 30.15 0 15.3 0 0 Z " fill="#8BFF1F" transform="translate(234,28)"/>
<path d="M0 0 C5.506875 -0.12375 5.506875 -0.12375 11.125 -0.25 C12.2711377 -0.28641602 13.41727539 -0.32283203 14.59814453 -0.36035156 C20.72617886 -0.42697231 24.39781897 -0.19477484 29 4 C31.97374571 8.46061856 31.74701417 12.77090079 31 18 C29.13061253 21.65249551 26.39700951 23.735327 23 26 C21.00708008 26.22705078 21.00708008 26.22705078 18.76953125 26.1953125 C17.96708984 26.18886719 17.16464844 26.18242188 16.33789062 26.17578125 C15.50451172 26.15902344 14.67113281 26.14226563 13.8125 26.125 C12.96751953 26.11597656 12.12253906 26.10695313 11.25195312 26.09765625 C9.16784757 26.07410703 7.08388783 26.03823647 5 26 C5 30.95 5 35.9 5 41 C3.35 41 1.7 41 0 41 C0 27.47 0 13.94 0 0 Z M4 3 C4 9.27 4 15.54 4 22 C6.701875 22.0825 9.40375 22.165 12.1875 22.25 C13.45049927 22.30462402 13.45049927 22.30462402 14.73901367 22.36035156 C18.67603679 22.41837972 20.56872297 22.27286024 23.98828125 20.109375 C26.59053841 17.38079468 26.95361529 16.49167796 27.3125 12.6875 C26.95124058 8.42463889 25.98007946 6.98007946 23 4 C19.69428083 2.34714041 16.004622 2.8994882 12.375 2.9375 C8.229375 2.9684375 8.229375 2.9684375 4 3 Z " fill="#F3F4F6" transform="translate(399,32)"/>
<path d="M0 0 C2.701875 -0.0825 5.40375 -0.165 8.1875 -0.25 C9.02949951 -0.28641602 9.87149902 -0.32283203 10.73901367 -0.36035156 C14.67603679 -0.41837972 16.56872297 -0.27286024 19.98828125 1.890625 C22.59053841 4.61920532 22.95361529 5.50832204 23.3125 9.3125 C22.95124058 13.57536111 21.98007946 15.01992054 19 18 C15.69428083 19.65285959 12.004622 19.1005118 8.375 19.0625 C5.61125 19.041875 2.8475 19.02125 0 19 C0 12.73 0 6.46 0 0 Z " fill="#1A2D44" transform="translate(403,35)"/>
<path d="M0 0 C6.0546875 -0.1953125 6.0546875 -0.1953125 8 0 C8.66 0.66 9.32 1.32 10 2 C9.625 5.625 9.625 5.625 9 9 C6.03 9 3.06 9 0 9 C0 6.03 0 3.06 0 0 Z " fill="#FEFFFD" transform="translate(128,39)"/>
</svg>
